<svg width="32px" height="32px" viewBox="0 0 32 32" version="1.1" xmlns="http://www.w3.org/2000/svg" xmlns:xlink="http://www.w3.org/1999/xlink">
    <defs>
        <linearGradient x1="50%" y1="0%" x2="50%" y2="100%" id="linearGradient-1">
            <stop stop-color="#EB912D" offset="0%"></stop>
            <stop stop-color="#DB372A" offset="100%"></stop>
        </linearGradient>
    </defs>
    <g id="Symbols" stroke="none" stroke-width="1" fill="none" fill-rule="evenodd">
        <g id="Icons/Koenig/Card-Menu/SoundCloud---Filled">
            <rect id="32x32" stroke="#FFFFFF" opacity="0" x="0" y="0" width="32" height="32"></rect>
            <path d="M15.9240499,9.92216102 C15.6878134,9.92216102 15.4936659,10.1164667 15.4901848,10.3547602 L15.3128097,19.2213036 L15.4905013,22.4393734 C15.4936659,22.6741859 15.6878134,22.8683333 15.9240499,22.8683333 C16.1598117,22.8683333 16.3539592,22.6741859 16.357282,22.4360506 L16.357282,22.4396899 L16.5501637,19.2213036 L16.357282,10.3541273 C16.3539592,10.1164667 16.1598117,9.92216102 15.9240499,9.92216102 Z M28.0640434,15.0244267 C27.5247975,15.0244267 27.0102355,15.1337632 26.5417182,15.3299677 C26.2284239,11.7826225 23.2538692,9 19.6253523,9 C18.7375271,9 17.8721704,9.1748435 17.1076059,9.47057427 C16.8102928,9.58544883 16.7314946,9.70380443 16.7288047,9.93323708 L16.7288047,22.4254492 C16.731811,22.6665908 16.9185217,22.8670675 17.1536506,22.8906437 C17.1639356,22.8917513 27.9939477,22.8971311 28.0640434,22.8971311 C30.2379573,22.8971311 32,21.1346137 32,18.9605415 C32,16.7866276 30.2379573,15.0244267 28.0640434,15.0244267 Z M10.8855507,22.5589948 L10.8855507,22.5574126 L11.1124517,19.2187719 L10.8855507,11.9427506 C10.8800127,11.7618944 10.7376062,11.6202791 10.5614969,11.6202791 C10.3847546,11.6202791 10.2421899,11.7618944 10.2371266,11.9427506 L10.0353841,19.2187719 L10.237443,22.5586784 C10.2421899,22.7373194 10.3847546,22.8787765 10.5614969,22.8787765 C10.7376062,22.8787765 10.8792215,22.7373194 10.8855507,22.557729 L10.8855507,22.5589948 Z M7.93393922,22.8790929 C8.07776976,22.8790929 8.19644182,22.7620032 8.20340391,22.6121599 L8.46764703,19.2176643 L8.20340391,12.7210811 C8.19644182,12.5710796 8.07776976,12.4538316 7.93393922,12.4538316 C7.78868462,12.4538316 7.67048725,12.5710796 7.66399984,12.7210811 C7.66399984,12.7213976 7.43013677,19.2176643 7.43013677,19.2176643 L7.66447453,22.6134258 C7.67048725,22.7620032 7.78868462,22.8790929 7.93393922,22.8790929 Z M13.2306688,12.0109475 C13.0219642,12.0109475 12.8555069,12.1766137 12.8512347,12.3883246 L12.6820874,19.2197213 L12.8512347,22.5067791 C12.8555069,22.7162749 13.0219642,22.8816246 13.2306688,22.8816246 C13.4382658,22.8816246 13.6042485,22.7162749 13.6088371,22.5045639 L13.6088371,22.5074121 L13.7988706,19.2200378 L13.6088371,12.3876917 C13.6042485,12.1766137 13.4382658,12.0109475 13.2306688,12.0109475 Z M2.8022429,22.6572553 C2.88547157,22.6572553 2.95271907,22.5914319 2.96237107,22.5006082 L3.30177316,19.2148162 L2.96268753,15.8048141 C2.95271907,15.7138322 2.88547157,15.6480088 2.8022429,15.6480088 C2.7177484,15.6480088 2.65018444,15.7141487 2.64179828,15.8048141 C2.64179828,15.8051306 2.34306115,19.2148162 2.34306115,19.2148162 L2.64179828,22.4996588 C2.65018444,22.5914319 2.7177484,22.6572553 2.8022429,22.6572553 Z M5.34752124,22.8445989 C5.46144641,22.8445989 5.55353593,22.7533006 5.56223855,22.6332044 L5.8642985,19.2154491 L5.56223855,15.9644676 C5.55385239,15.8445297 5.46176287,15.7538643 5.34752124,15.7538643 C5.23185554,15.7538643 5.13976602,15.8448462 5.13248747,15.9657334 L4.86634559,19.2154491 L5.13248747,22.632888 C5.13976602,22.7533006 5.23185554,22.8445989 5.34752124,22.8445989 Z M11.8909404,22.8754537 C12.082398,22.8754537 12.2371463,22.7214965 12.2422097,22.5256084 L12.2422097,22.5281401 L12.4509143,19.2194049 L12.2422097,12.1288284 C12.2371463,11.9326239 12.082398,11.7792996 11.8909404,11.7792996 C11.6979005,11.7792996 11.5434686,11.9329404 11.5390382,12.1288284 L11.3535933,19.2194049 L11.5393546,22.5271907 C11.5434686,22.7214965 11.6979005,22.8754537 11.8909404,22.8754537 Z M14.5802075,22.8884285 C14.8003046,22.8884285 14.9821102,22.7066229 14.9862242,22.4838359 L14.9862242,22.4863675 L14.9862242,22.4838359 L15.1575866,19.2206707 L14.9862242,11.0906852 C14.9824266,10.8678982 14.8003046,10.6864091 14.5802075,10.6864091 C14.3596357,10.6864091 14.1773554,10.8678982 14.174349,11.0911599 L14.0210247,19.2179808 C14.0210247,19.2232024 14.174349,22.4860511 14.174349,22.4860511 C14.1773554,22.7066229 14.3596357,22.8884285 14.5802075,22.8884285 Z M9.24265469,22.8722891 C9.4024664,22.8722891 9.53268921,22.7431739 9.53949307,22.5778241 L9.78506512,19.2182973 L9.53949307,12.1793036 C9.53300567,12.0139539 9.4024664,11.8848387 9.24265469,11.8848387 C9.08126069,11.8848387 8.95103789,12.0142703 8.94565809,12.1796201 C8.94565809,12.1799365 8.72777618,19.2182973 8.72777618,19.2182973 L8.94565809,22.57909 C8.95103789,22.7428574 9.08126069,22.8722891 9.24265469,22.8722891 Z M4.0696605,15.5272797 C3.97060889,15.5272797 3.88975366,15.6065527 3.88200042,15.7120917 L3.59971914,19.2154491 L3.88200042,22.6047231 C3.88975366,22.709471 3.97060889,22.7889022 4.0696605,22.7889022 C4.16792096,22.7889022 4.24845974,22.709471 4.25732058,22.6047231 L4.57789337,19.2154491 L4.25732058,15.7114588 C4.24845974,15.6065527 4.16792096,15.5272797 4.0696605,15.5272797 Z M6.63535043,13.6896033 C6.50623523,13.6896033 6.39974683,13.7951424 6.39341766,13.9294791 L6.14309873,19.2170314 L6.39341766,22.6341538 C6.39974683,22.7672248 6.50623523,22.872922 6.63535043,22.872922 C6.76383271,22.872922 6.87000465,22.7672248 6.87759966,22.6332044 L6.87759966,22.6341538 L7.16083031,19.2170314 L6.87759966,13.9294791 C6.87000465,13.7951424 6.76383271,13.6896033 6.63535043,13.6896033 Z M1.67818115,16.3407372 C1.66726332,16.2643123 1.61235772,16.2114637 1.54511022,16.2114637 C1.47738803,16.2114637 1.42121659,16.2658946 1.41203928,16.3407372 C1.41203928,16.3412118 1.09747921,19.2141833 1.09747921,19.2141833 L1.41203928,22.0246541 C1.42121659,22.0998131 1.47738803,22.1544022 1.54511022,22.1544022 C1.61235772,22.1544022 1.66726332,22.1012372 1.67786469,22.025287 L2.03593786,19.2141833 L1.67818115,16.3407372 Z M0.362187126,17.3117911 C0.295256084,17.3117911 0.24256569,17.3635321 0.233863072,17.4371088 L0,19.2141833 L0.233863072,20.9611942 C0.24256569,21.0347709 0.295256084,21.0860372 0.362187126,21.0860372 C0.426744727,21.0860372 0.479435121,21.0354038 0.489878262,20.9618272 L0.489878262,20.9615107 C0.489878262,20.9615107 0.489878262,20.9615107 0.489878262,20.9618272 L0.767096194,19.2141833 L0.489878262,17.4364758 C0.47975158,17.3633738 0.426744727,17.3117911 0.362187126,17.3117911 Z" id="SoundCloud-Icon" fill="url(#linearGradient-1)"></path>
        </g>
    </g>
</svg>
